<svg xmlns="http://www.w3.org/2000/svg" xmlns:xlink="http://www.w3.org/1999/xlink" width="100" zoomAndPan="magnify" viewBox="0 0 75 52.499999" height="70" preserveAspectRatio="xMidYMid meet" version="1.0"><defs><g/><clipPath id="id1"><path d="M 6.894531 18.15625 L 22.351562 18.15625 L 22.351562 33.757812 L 6.894531 33.757812 Z M 6.894531 18.15625 " clip-rule="nonzero"/></clipPath></defs><g fill="#ffffff" fill-opacity="1"><g transform="translate(24.518425, 25.158076)"><g><path d="M 3.75 0 L 1.90625 0 L 1.90625 -3.3125 L 0.1875 -3.3125 L 0.1875 -4.40625 L 5.484375 -4.40625 L 5.484375 -3.3125 L 3.75 -3.3125 Z M 3.75 0 "/></g></g><g transform="translate(30.179916, 25.158076)"><g><path d="M 3.328125 0.09375 C 2.242188 0.09375 1.441406 -0.128906 0.921875 -0.578125 C 0.472656 -0.972656 0.25 -1.515625 0.25 -2.203125 C 0.25 -2.878906 0.472656 -3.414062 0.921875 -3.8125 C 1.441406 -4.257812 2.242188 -4.484375 3.328125 -4.484375 C 4.410156 -4.484375 5.210938 -4.257812 5.734375 -3.8125 C 6.179688 -3.414062 6.40625 -2.878906 6.40625 -2.203125 C 6.40625 -1.515625 6.179688 -0.972656 5.734375 -0.578125 C 5.210938 -0.128906 4.410156 0.09375 3.328125 0.09375 Z M 3.328125 -1.078125 C 3.773438 -1.078125 4.101562 -1.207031 4.3125 -1.46875 C 4.476562 -1.675781 4.5625 -1.921875 4.5625 -2.203125 C 4.5625 -2.484375 4.476562 -2.722656 4.3125 -2.921875 C 4.101562 -3.179688 3.773438 -3.3125 3.328125 -3.3125 C 2.878906 -3.3125 2.550781 -3.179688 2.34375 -2.921875 C 2.175781 -2.722656 2.09375 -2.484375 2.09375 -2.203125 C 2.09375 -1.921875 2.175781 -1.675781 2.34375 -1.46875 C 2.550781 -1.207031 2.878906 -1.078125 3.328125 -1.078125 Z M 3.328125 -1.078125 "/></g></g><g transform="translate(36.835081, 25.158076)"><g><path d="M 3.75 0 L 1.90625 0 L 1.90625 -3.3125 L 0.1875 -3.3125 L 0.1875 -4.40625 L 5.484375 -4.40625 L 5.484375 -3.3125 L 3.75 -3.3125 Z M 3.75 0 "/></g></g><g transform="translate(42.496571, 25.158076)"><g><path d="M 7.390625 0 L 5.515625 0 L 5.109375 -0.71875 L 2.328125 -0.71875 L 1.921875 0 L 0.046875 0 L 2.859375 -4.390625 L 4.578125 -4.390625 Z M 4.484375 -1.8125 L 3.71875 -3.140625 L 2.953125 -1.8125 Z M 4.484375 -1.8125 "/></g></g><g transform="translate(49.933795, 25.158076)"><g><path d="M 5.625 0 L 0.484375 0 L 0.484375 -4.40625 L 2.34375 -4.40625 L 2.34375 -1.09375 L 5.625 -1.09375 Z M 5.625 0 "/></g></g><g transform="translate(55.684225, 25.158076)"><g><path d="M 5.625 0 L 0.484375 0 L 0.484375 -4.40625 L 2.34375 -4.40625 L 2.34375 -1.09375 L 5.625 -1.09375 Z M 5.625 0 "/></g></g><g transform="translate(61.434656, 25.158076)"><g><path d="M 4.296875 0 L 2.453125 0 L 2.453125 -2.078125 L 0.046875 -4.40625 L 2.09375 -4.40625 L 3.375 -3.078125 L 4.640625 -4.40625 L 6.6875 -4.40625 L 4.296875 -2.078125 Z M 4.296875 0 "/></g></g></g><g fill="#ffffff" fill-opacity="1"><g transform="translate(24.518425, 30.596726)"><g><path d="M 7.015625 0 L 4.828125 0 L 2.34375 -2.984375 L 2.34375 0 L 0.484375 0 L 0.484375 -4.40625 L 2.6875 -4.40625 L 5.171875 -1.4375 L 5.171875 -4.40625 L 7.015625 -4.40625 Z M 7.015625 0 "/></g></g><g transform="translate(32.029254, 30.596726)"><g><path d="M 3.328125 0.09375 C 2.242188 0.09375 1.441406 -0.128906 0.921875 -0.578125 C 0.472656 -0.972656 0.25 -1.515625 0.25 -2.203125 C 0.25 -2.878906 0.472656 -3.414062 0.921875 -3.8125 C 1.441406 -4.257812 2.242188 -4.484375 3.328125 -4.484375 C 4.410156 -4.484375 5.210938 -4.257812 5.734375 -3.8125 C 6.179688 -3.414062 6.40625 -2.878906 6.40625 -2.203125 C 6.40625 -1.515625 6.179688 -0.972656 5.734375 -0.578125 C 5.210938 -0.128906 4.410156 0.09375 3.328125 0.09375 Z M 3.328125 -1.078125 C 3.773438 -1.078125 4.101562 -1.207031 4.3125 -1.46875 C 4.476562 -1.675781 4.5625 -1.921875 4.5625 -2.203125 C 4.5625 -2.484375 4.476562 -2.722656 4.3125 -2.921875 C 4.101562 -3.179688 3.773438 -3.3125 3.328125 -3.3125 C 2.878906 -3.3125 2.550781 -3.179688 2.34375 -2.921875 C 2.175781 -2.722656 2.09375 -2.484375 2.09375 -2.203125 C 2.09375 -1.921875 2.175781 -1.675781 2.34375 -1.46875 C 2.550781 -1.207031 2.878906 -1.078125 3.328125 -1.078125 Z M 3.328125 -1.078125 "/></g></g><g transform="translate(38.684419, 30.596726)"><g><path d="M 3.75 0 L 1.90625 0 L 1.90625 -3.3125 L 0.1875 -3.3125 L 0.1875 -4.40625 L 5.484375 -4.40625 L 5.484375 -3.3125 L 3.75 -3.3125 Z M 3.75 0 "/></g></g><g transform="translate(44.34591, 30.596726)"><g><path d="M 2.90625 0.09375 C 2.3125 0.09375 1.832031 0.03125 1.46875 -0.09375 C 1.101562 -0.21875 0.828125 -0.390625 0.640625 -0.609375 C 0.453125 -0.835938 0.320312 -1.101562 0.25 -1.40625 L 2.21875 -1.40625 C 2.363281 -1.1875 2.59375 -1.078125 2.90625 -1.078125 C 3.226562 -1.078125 3.457031 -1.1875 3.59375 -1.40625 C 3.613281 -1.414062 3.625 -1.429688 3.625 -1.453125 C 3.625 -1.503906 3.550781 -1.546875 3.40625 -1.578125 C 3.257812 -1.609375 3.039062 -1.628906 2.75 -1.640625 C 2.382812 -1.660156 2 -1.695312 1.59375 -1.75 C 0.695312 -1.894531 0.25 -2.257812 0.25 -2.84375 C 0.25 -2.882812 0.25 -2.9375 0.25 -3 C 0.320312 -3.289062 0.453125 -3.546875 0.640625 -3.765625 C 0.828125 -3.992188 1.101562 -4.171875 1.46875 -4.296875 C 1.832031 -4.421875 2.3125 -4.484375 2.90625 -4.484375 C 3.5 -4.484375 3.976562 -4.421875 4.34375 -4.296875 C 4.707031 -4.171875 4.984375 -3.992188 5.171875 -3.765625 C 5.367188 -3.546875 5.5 -3.289062 5.5625 -3 L 3.59375 -3 C 3.457031 -3.207031 3.226562 -3.3125 2.90625 -3.3125 C 2.59375 -3.3125 2.363281 -3.207031 2.21875 -3 C 2.207031 -2.976562 2.203125 -2.960938 2.203125 -2.953125 C 2.203125 -2.898438 2.269531 -2.863281 2.40625 -2.84375 C 2.550781 -2.820312 2.757812 -2.800781 3.03125 -2.78125 C 3.300781 -2.757812 3.585938 -2.726562 3.890625 -2.6875 C 4.203125 -2.65625 4.492188 -2.59375 4.765625 -2.5 C 5.035156 -2.414062 5.242188 -2.285156 5.390625 -2.109375 C 5.515625 -1.972656 5.578125 -1.796875 5.578125 -1.578125 C 5.578125 -1.523438 5.570312 -1.46875 5.5625 -1.40625 C 5.5 -1.101562 5.367188 -0.835938 5.171875 -0.609375 C 4.984375 -0.390625 4.707031 -0.21875 4.34375 -0.09375 C 3.976562 0.03125 3.5 0.09375 2.90625 0.09375 Z M 2.90625 0.09375 "/></g></g><g transform="translate(50.166879, 30.596726)"><g><path d="M 7.390625 0 L 5.515625 0 L 5.109375 -0.71875 L 2.328125 -0.71875 L 1.921875 0 L 0.046875 0 L 2.859375 -4.390625 L 4.578125 -4.390625 Z M 4.484375 -1.8125 L 3.71875 -3.140625 L 2.953125 -1.8125 Z M 4.484375 -1.8125 "/></g></g><g transform="translate(57.604102, 30.596726)"><g><path d="M 8.859375 0 L 7.015625 0 L 7.015625 -2.8125 L 5.359375 0 L 3.984375 0 L 2.34375 -2.8125 L 2.34375 0 L 0.484375 0 L 0.484375 -4.40625 L 2.6875 -4.40625 L 4.671875 -1.25 L 6.65625 -4.40625 L 8.859375 -4.40625 Z M 8.859375 0 "/></g></g></g><g clip-path="url(#id1)"><path fill="#ffffff" d="M 21.851562 26.445312 L 20.855469 26.445312 L 20.855469 26.203125 C 20.855469 26.007812 20.777344 25.824219 20.636719 25.683594 C 20.425781 25.480469 20.101562 25.429688 19.828125 25.527344 C 19.796875 25.402344 19.734375 25.289062 19.640625 25.199219 C 19.429688 24.992188 19.101562 24.941406 18.832031 25.039062 C 18.800781 24.917969 18.734375 24.804688 18.640625 24.710938 C 18.359375 24.433594 17.867188 24.433594 17.582031 24.710938 C 17.488281 24.804688 17.425781 24.917969 17.394531 25.039062 C 17.121094 24.941406 16.796875 24.992188 16.585938 25.199219 C 16.445312 25.335938 16.367188 25.519531 16.367188 25.714844 L 16.367188 26.445312 L 12.878906 26.445312 L 12.878906 25.714844 C 12.878906 25.519531 12.800781 25.335938 12.65625 25.199219 C 12.449219 24.992188 12.121094 24.941406 11.851562 25.039062 C 11.820312 24.917969 11.753906 24.804688 11.660156 24.710938 C 11.378906 24.433594 10.886719 24.433594 10.605469 24.710938 C 10.507812 24.804688 10.445312 24.917969 10.410156 25.039062 C 10.140625 24.941406 9.816406 24.992188 9.605469 25.199219 C 9.511719 25.289062 9.449219 25.402344 9.414062 25.527344 C 9.144531 25.429688 8.820312 25.480469 8.609375 25.683594 C 8.46875 25.824219 8.390625 26.007812 8.390625 26.203125 L 8.390625 26.445312 L 7.390625 26.445312 L 7.390625 21.082031 L 21.851562 21.082031 Z M 20.355469 29.328125 L 19.609375 31.277344 L 19.609375 31.808594 L 17.117188 31.808594 L 17.117188 31.21875 L 17.042969 31.148438 C 16.714844 30.828125 15.867188 29.84375 15.867188 29.132812 L 15.867188 27.910156 C 15.867188 27.84375 15.894531 27.78125 15.941406 27.738281 C 16.035156 27.644531 16.199219 27.644531 16.292969 27.738281 C 16.34375 27.78125 16.367188 27.84375 16.367188 27.910156 L 16.367188 28.882812 L 16.867188 28.882812 L 16.867188 25.714844 C 16.867188 25.648438 16.890625 25.589844 16.941406 25.542969 C 17.035156 25.449219 17.199219 25.449219 17.292969 25.542969 C 17.339844 25.589844 17.363281 25.648438 17.363281 25.714844 L 17.363281 27.664062 L 17.863281 27.664062 L 17.863281 25.226562 C 17.863281 25.160156 17.890625 25.101562 17.9375 25.054688 C 18.03125 24.960938 18.195312 24.960938 18.289062 25.054688 C 18.335938 25.101562 18.363281 25.160156 18.363281 25.226562 L 18.363281 27.664062 L 18.859375 27.664062 L 18.859375 25.714844 C 18.859375 25.648438 18.886719 25.589844 18.933594 25.542969 C 19.027344 25.449219 19.191406 25.449219 19.285156 25.542969 C 19.332031 25.589844 19.359375 25.648438 19.359375 25.714844 L 19.359375 27.664062 L 19.859375 27.664062 L 19.859375 26.203125 C 19.859375 26.136719 19.882812 26.074219 19.929688 26.027344 C 20.023438 25.9375 20.1875 25.9375 20.28125 26.027344 C 20.332031 26.074219 20.355469 26.136719 20.355469 26.203125 Z M 12.949219 27.738281 C 13.042969 27.644531 13.207031 27.644531 13.300781 27.738281 C 13.351562 27.78125 13.375 27.84375 13.375 27.910156 L 13.375 29.132812 C 13.375 29.84375 12.527344 30.828125 12.203125 31.148438 L 12.128906 31.21875 L 12.128906 31.808594 L 9.636719 31.808594 L 9.636719 31.277344 L 8.886719 29.328125 L 8.886719 26.203125 C 8.886719 26.136719 8.914062 26.074219 8.960938 26.03125 C 9.054688 25.9375 9.21875 25.9375 9.3125 26.03125 C 9.363281 26.074219 9.386719 26.136719 9.386719 26.203125 L 9.386719 27.664062 L 9.886719 27.664062 L 9.886719 25.714844 C 9.886719 25.648438 9.910156 25.589844 9.960938 25.542969 C 10.054688 25.449219 10.21875 25.449219 10.3125 25.542969 C 10.359375 25.589844 10.382812 25.648438 10.382812 25.714844 L 10.382812 27.664062 L 10.882812 27.664062 L 10.882812 25.226562 C 10.882812 25.160156 10.910156 25.101562 10.957031 25.054688 C 11.050781 24.960938 11.214844 24.960938 11.308594 25.054688 C 11.355469 25.101562 11.382812 25.160156 11.382812 25.226562 L 11.382812 27.664062 L 11.878906 27.664062 L 11.878906 25.714844 C 11.878906 25.648438 11.90625 25.589844 11.953125 25.542969 C 12.046875 25.449219 12.210938 25.449219 12.304688 25.542969 C 12.351562 25.589844 12.378906 25.648438 12.378906 25.714844 L 12.378906 28.882812 L 12.878906 28.882812 L 12.878906 27.910156 C 12.878906 27.84375 12.902344 27.78125 12.949219 27.738281 Z M 22.207031 20.738281 C 22.109375 20.644531 21.984375 20.59375 21.851562 20.59375 L 14.871094 20.59375 L 14.871094 20.351562 C 14.871094 20.15625 14.792969 19.972656 14.652344 19.835938 C 14.511719 19.695312 14.324219 19.621094 14.125 19.621094 L 12.628906 19.621094 C 12.5625 19.621094 12.5 19.59375 12.453125 19.546875 C 12.402344 19.503906 12.378906 19.441406 12.378906 19.375 C 12.378906 19.3125 12.402344 19.25 12.453125 19.203125 C 12.5 19.15625 12.5625 19.132812 12.628906 19.132812 L 15.621094 19.132812 C 15.820312 19.132812 16.007812 19.054688 16.148438 18.917969 C 16.289062 18.78125 16.367188 18.597656 16.367188 18.402344 L 16.367188 18.15625 L 15.867188 18.15625 L 15.867188 18.402344 C 15.867188 18.464844 15.84375 18.527344 15.796875 18.574219 C 15.75 18.621094 15.6875 18.644531 15.621094 18.644531 L 12.628906 18.644531 C 12.429688 18.644531 12.238281 18.722656 12.101562 18.859375 C 11.957031 18.996094 11.878906 19.179688 11.878906 19.375 C 11.878906 19.570312 11.957031 19.757812 12.101562 19.894531 C 12.238281 20.03125 12.429688 20.109375 12.628906 20.109375 L 14.125 20.109375 C 14.191406 20.109375 14.253906 20.132812 14.300781 20.179688 C 14.347656 20.226562 14.375 20.285156 14.375 20.351562 L 14.375 20.59375 L 7.390625 20.59375 C 7.257812 20.59375 7.132812 20.644531 7.039062 20.738281 C 6.945312 20.832031 6.894531 20.953125 6.894531 21.082031 L 6.894531 26.445312 C 6.894531 26.574219 6.945312 26.699219 7.039062 26.789062 C 7.132812 26.882812 7.257812 26.933594 7.390625 26.933594 L 8.390625 26.933594 L 8.390625 29.414062 L 9.136719 31.367188 L 9.136719 31.875 C 9.101562 31.898438 9.066406 31.921875 9.035156 31.953125 C 8.941406 32.042969 8.886719 32.167969 8.886719 32.296875 L 8.886719 33.757812 L 9.386719 33.757812 L 9.386719 32.296875 L 12.378906 32.296875 L 12.378906 33.757812 L 12.878906 33.757812 L 12.878906 32.296875 C 12.878906 32.167969 12.824219 32.042969 12.730469 31.953125 C 12.699219 31.921875 12.664062 31.898438 12.628906 31.875 L 12.628906 31.417969 C 12.90625 31.128906 13.875 30.058594 13.875 29.132812 L 13.875 27.910156 C 13.875 27.714844 13.796875 27.527344 13.65625 27.390625 C 13.453125 27.191406 13.140625 27.140625 12.878906 27.226562 L 12.878906 26.933594 L 16.367188 26.933594 L 16.367188 27.226562 C 16.105469 27.140625 15.792969 27.191406 15.589844 27.390625 C 15.449219 27.527344 15.371094 27.714844 15.371094 27.910156 L 15.371094 29.132812 C 15.371094 30.058594 16.335938 31.128906 16.617188 31.417969 L 16.617188 31.875 C 16.582031 31.898438 16.542969 31.921875 16.511719 31.953125 C 16.421875 32.042969 16.367188 32.167969 16.367188 32.296875 L 16.367188 33.757812 L 16.867188 33.757812 L 16.867188 32.296875 L 19.859375 32.296875 L 19.859375 33.757812 L 20.355469 33.757812 L 20.355469 32.296875 C 20.355469 32.167969 20.304688 32.042969 20.210938 31.953125 C 20.179688 31.921875 20.144531 31.898438 20.105469 31.875 L 20.105469 31.367188 L 20.855469 29.414062 L 20.855469 26.933594 L 21.851562 26.933594 C 21.984375 26.933594 22.113281 26.882812 22.207031 26.789062 C 22.296875 26.699219 22.351562 26.574219 22.351562 26.445312 L 22.351562 21.082031 C 22.351562 20.953125 22.296875 20.828125 22.207031 20.738281 " fill-opacity="1" fill-rule="nonzero"/></g><path fill="#ffffff" d="M 8.390625 21.570312 L 8.886719 21.570312 L 8.886719 22.058594 L 8.390625 22.058594 L 8.390625 21.570312 " fill-opacity="1" fill-rule="nonzero"/><path fill="#ffffff" d="M 9.386719 21.570312 L 9.886719 21.570312 L 9.886719 22.058594 L 9.386719 22.058594 L 9.386719 21.570312 " fill-opacity="1" fill-rule="nonzero"/><path fill="#ffffff" d="M 10.382812 21.570312 L 10.882812 21.570312 L 10.882812 22.058594 L 10.382812 22.058594 L 10.382812 21.570312 " fill-opacity="1" fill-rule="nonzero"/><path fill="#ffffff" d="M 11.382812 21.570312 L 11.878906 21.570312 L 11.878906 22.058594 L 11.382812 22.058594 L 11.382812 21.570312 " fill-opacity="1" fill-rule="nonzero"/><path fill="#ffffff" d="M 12.378906 21.570312 L 12.878906 21.570312 L 12.878906 22.058594 L 12.378906 22.058594 L 12.378906 21.570312 " fill-opacity="1" fill-rule="nonzero"/><path fill="#ffffff" d="M 13.375 21.570312 L 13.875 21.570312 L 13.875 22.058594 L 13.375 22.058594 L 13.375 21.570312 " fill-opacity="1" fill-rule="nonzero"/><path fill="#ffffff" d="M 14.375 21.570312 L 14.871094 21.570312 L 14.871094 22.058594 L 14.375 22.058594 L 14.375 21.570312 " fill-opacity="1" fill-rule="nonzero"/><path fill="#ffffff" d="M 15.371094 21.570312 L 15.867188 21.570312 L 15.867188 22.058594 L 15.371094 22.058594 L 15.371094 21.570312 " fill-opacity="1" fill-rule="nonzero"/><path fill="#ffffff" d="M 16.367188 21.570312 L 16.867188 21.570312 L 16.867188 22.058594 L 16.367188 22.058594 L 16.367188 21.570312 " fill-opacity="1" fill-rule="nonzero"/><path fill="#ffffff" d="M 17.363281 21.570312 L 17.863281 21.570312 L 17.863281 22.058594 L 17.363281 22.058594 L 17.363281 21.570312 " fill-opacity="1" fill-rule="nonzero"/><path fill="#ffffff" d="M 18.363281 21.570312 L 18.859375 21.570312 L 18.859375 22.058594 L 18.363281 22.058594 L 18.363281 21.570312 " fill-opacity="1" fill-rule="nonzero"/><path fill="#ffffff" d="M 19.359375 21.570312 L 19.859375 21.570312 L 19.859375 22.058594 L 19.359375 22.058594 L 19.359375 21.570312 " fill-opacity="1" fill-rule="nonzero"/><path fill="#ffffff" d="M 20.355469 21.570312 L 20.855469 21.570312 L 20.855469 22.058594 L 20.355469 22.058594 L 20.355469 21.570312 " fill-opacity="1" fill-rule="nonzero"/><path fill="#ffffff" d="M 7.890625 22.546875 L 8.390625 22.546875 L 8.390625 23.03125 L 7.890625 23.03125 L 7.890625 22.546875 " fill-opacity="1" fill-rule="nonzero"/><path fill="#ffffff" d="M 8.886719 22.546875 L 9.386719 22.546875 L 9.386719 23.03125 L 8.886719 23.03125 L 8.886719 22.546875 " fill-opacity="1" fill-rule="nonzero"/><path fill="#ffffff" d="M 9.886719 22.546875 L 10.382812 22.546875 L 10.382812 23.03125 L 9.886719 23.03125 L 9.886719 22.546875 " fill-opacity="1" fill-rule="nonzero"/><path fill="#ffffff" d="M 10.882812 22.546875 L 11.382812 22.546875 L 11.382812 23.03125 L 10.882812 23.03125 L 10.882812 22.546875 " fill-opacity="1" fill-rule="nonzero"/><path fill="#ffffff" d="M 11.878906 22.546875 L 12.378906 22.546875 L 12.378906 23.03125 L 11.878906 23.03125 L 11.878906 22.546875 " fill-opacity="1" fill-rule="nonzero"/><path fill="#ffffff" d="M 12.878906 22.546875 L 13.375 22.546875 L 13.375 23.03125 L 12.878906 23.03125 L 12.878906 22.546875 " fill-opacity="1" fill-rule="nonzero"/><path fill="#ffffff" d="M 13.875 22.546875 L 14.375 22.546875 L 14.375 23.03125 L 13.875 23.03125 L 13.875 22.546875 " fill-opacity="1" fill-rule="nonzero"/><path fill="#ffffff" d="M 14.871094 22.546875 L 15.371094 22.546875 L 15.371094 23.03125 L 14.871094 23.03125 L 14.871094 22.546875 " fill-opacity="1" fill-rule="nonzero"/><path fill="#ffffff" d="M 15.867188 22.546875 L 16.367188 22.546875 L 16.367188 23.03125 L 15.867188 23.03125 L 15.867188 22.546875 " fill-opacity="1" fill-rule="nonzero"/><path fill="#ffffff" d="M 16.867188 22.546875 L 17.363281 22.546875 L 17.363281 23.03125 L 16.867188 23.03125 L 16.867188 22.546875 " fill-opacity="1" fill-rule="nonzero"/><path fill="#ffffff" d="M 17.863281 22.546875 L 18.363281 22.546875 L 18.363281 23.03125 L 17.863281 23.03125 L 17.863281 22.546875 " fill-opacity="1" fill-rule="nonzero"/><path fill="#ffffff" d="M 18.859375 22.546875 L 19.359375 22.546875 L 19.359375 23.03125 L 18.859375 23.03125 L 18.859375 22.546875 " fill-opacity="1" fill-rule="nonzero"/><path fill="#ffffff" d="M 19.859375 22.546875 L 20.355469 22.546875 L 20.355469 23.03125 L 19.859375 23.03125 L 19.859375 22.546875 " fill-opacity="1" fill-rule="nonzero"/><path fill="#ffffff" d="M 20.855469 22.546875 L 21.355469 22.546875 L 21.355469 23.03125 L 20.855469 23.03125 L 20.855469 22.546875 " fill-opacity="1" fill-rule="nonzero"/><path fill="#ffffff" d="M 8.390625 23.519531 L 8.886719 23.519531 L 8.886719 24.007812 L 8.390625 24.007812 L 8.390625 23.519531 " fill-opacity="1" fill-rule="nonzero"/><path fill="#ffffff" d="M 9.386719 23.519531 L 9.886719 23.519531 L 9.886719 24.007812 L 9.386719 24.007812 L 9.386719 23.519531 " fill-opacity="1" fill-rule="nonzero"/><path fill="#ffffff" d="M 10.382812 23.519531 L 10.882812 23.519531 L 10.882812 24.007812 L 10.382812 24.007812 L 10.382812 23.519531 " fill-opacity="1" fill-rule="nonzero"/><path fill="#ffffff" d="M 11.382812 23.519531 L 11.878906 23.519531 L 11.878906 24.007812 L 11.382812 24.007812 L 11.382812 23.519531 " fill-opacity="1" fill-rule="nonzero"/><path fill="#ffffff" d="M 12.378906 23.519531 L 12.878906 23.519531 L 12.878906 24.007812 L 12.378906 24.007812 L 12.378906 23.519531 " fill-opacity="1" fill-rule="nonzero"/><path fill="#ffffff" d="M 13.375 23.519531 L 13.875 23.519531 L 13.875 24.007812 L 13.375 24.007812 L 13.375 23.519531 " fill-opacity="1" fill-rule="nonzero"/><path fill="#ffffff" d="M 14.375 23.519531 L 14.871094 23.519531 L 14.871094 24.007812 L 14.375 24.007812 L 14.375 23.519531 " fill-opacity="1" fill-rule="nonzero"/><path fill="#ffffff" d="M 15.371094 23.519531 L 15.867188 23.519531 L 15.867188 24.007812 L 15.371094 24.007812 L 15.371094 23.519531 " fill-opacity="1" fill-rule="nonzero"/><path fill="#ffffff" d="M 16.367188 23.519531 L 16.867188 23.519531 L 16.867188 24.007812 L 16.367188 24.007812 L 16.367188 23.519531 " fill-opacity="1" fill-rule="nonzero"/><path fill="#ffffff" d="M 17.363281 23.519531 L 17.863281 23.519531 L 17.863281 24.007812 L 17.363281 24.007812 L 17.363281 23.519531 " fill-opacity="1" fill-rule="nonzero"/><path fill="#ffffff" d="M 18.363281 23.519531 L 18.859375 23.519531 L 18.859375 24.007812 L 18.363281 24.007812 L 18.363281 23.519531 " fill-opacity="1" fill-rule="nonzero"/><path fill="#ffffff" d="M 19.359375 23.519531 L 19.859375 23.519531 L 19.859375 24.007812 L 19.359375 24.007812 L 19.359375 23.519531 " fill-opacity="1" fill-rule="nonzero"/><path fill="#ffffff" d="M 20.355469 23.519531 L 20.855469 23.519531 L 20.855469 24.007812 L 20.355469 24.007812 L 20.355469 23.519531 " fill-opacity="1" fill-rule="nonzero"/><path fill="#ffffff" d="M 7.890625 24.496094 L 8.390625 24.496094 L 8.390625 24.984375 L 7.890625 24.984375 L 7.890625 24.496094 " fill-opacity="1" fill-rule="nonzero"/><path fill="#ffffff" d="M 8.886719 24.496094 L 9.386719 24.496094 L 9.386719 24.984375 L 8.886719 24.984375 L 8.886719 24.496094 " fill-opacity="1" fill-rule="nonzero"/><path fill="#ffffff" d="M 12.878906 24.496094 L 13.375 24.496094 L 13.375 24.984375 L 12.878906 24.984375 L 12.878906 24.496094 " fill-opacity="1" fill-rule="nonzero"/><path fill="#ffffff" d="M 13.875 24.496094 L 14.375 24.496094 L 14.375 24.984375 L 13.875 24.984375 L 13.875 24.496094 " fill-opacity="1" fill-rule="nonzero"/><path fill="#ffffff" d="M 14.871094 24.496094 L 15.371094 24.496094 L 15.371094 24.984375 L 14.871094 24.984375 L 14.871094 24.496094 " fill-opacity="1" fill-rule="nonzero"/><path fill="#ffffff" d="M 15.867188 24.496094 L 16.367188 24.496094 L 16.367188 24.984375 L 15.867188 24.984375 L 15.867188 24.496094 " fill-opacity="1" fill-rule="nonzero"/><path fill="#ffffff" d="M 19.859375 24.496094 L 20.355469 24.496094 L 20.355469 24.984375 L 19.859375 24.984375 L 19.859375 24.496094 " fill-opacity="1" fill-rule="nonzero"/><path fill="#ffffff" d="M 20.855469 24.496094 L 21.355469 24.496094 L 21.355469 24.984375 L 20.855469 24.984375 L 20.855469 24.496094 " fill-opacity="1" fill-rule="nonzero"/><path fill="#ffffff" d="M 13.375 25.46875 L 15.867188 25.46875 L 15.867188 25.957031 L 13.375 25.957031 L 13.375 25.46875 " fill-opacity="1" fill-rule="nonzero"/></svg>